<?xml version="1.0" encoding="iso-8859-1"?>
<!-- Uploaded to: SVG Repo, www.svgrepo.com, Generator: SVG Repo Mixer Tools -->
<svg version="1.1" id="Layer_1" xmlns="http://www.w3.org/2000/svg" xmlns:xlink="http://www.w3.org/1999/xlink" 
	 viewBox="0 0 512 512" xml:space="preserve">
<polygon style="fill:#53583C;" points="438.468,394.894 471.149,503.83 503.83,503.83 503.83,460.255 "/>
<polygon style="fill:#69744A;" points="8.17,460.255 8.17,503.83 471.149,503.83 471.149,394.894 "/>
<rect x="8.17" y="8.17" style="fill:#326E7D;" width="495.66" height="452.085"/>
<g>
	<circle style="fill:#FFFFFF;" cx="462.979" cy="81.702" r="8.17"/>
	<circle style="fill:#FFFFFF;" cx="364.936" cy="49.021" r="8.17"/>
	<circle style="fill:#FFFFFF;" cx="430.298" cy="114.383" r="8.17"/>
	<circle style="fill:#FFFFFF;" cx="332.255" cy="179.745" r="8.17"/>
	<circle style="fill:#FFFFFF;" cx="364.936" cy="212.426" r="8.17"/>
	<circle style="fill:#FFFFFF;" cx="81.702" cy="147.064" r="8.17"/>
	<circle style="fill:#FFFFFF;" cx="147.064" cy="49.021" r="8.17"/>
	<circle style="fill:#FFFFFF;" cx="179.745" cy="212.426" r="8.17"/>
	<circle style="fill:#FFFFFF;" cx="49.021" cy="114.383" r="8.17"/>
</g>
<path style="fill:#4393A8;" d="M280.511,47.425H247.83v84.894h32.681c14.649-8.477,24.511-24.306,24.511-42.447
	C305.021,71.73,295.159,55.903,280.511,47.425z"/>
<path style="fill:#FFFFFF;" d="M256,89.872c0-18.141,9.862-33.97,24.511-42.447c-7.213-4.173-15.579-6.574-24.511-6.574
	c-27.074,0-49.021,21.947-49.021,49.021s21.947,49.021,49.021,49.021c8.932,0,17.298-2.401,24.511-6.574
	C265.862,123.842,256,108.013,256,89.872z"/>
<polygon style="fill:#53583C;" points="136.432,357.921 152.737,357.921 119.084,299.455 132.085,293.714 90.78,221.957 
	71.716,338.857 90.78,422.128 173.39,422.128 "/>
<polygon style="fill:#63ABA1;" points="90.78,422.128 8.17,422.128 45.129,357.921 28.822,357.921 65.781,293.714 49.476,293.714 
	90.78,221.957 "/>
<polygon style="fill:#53583C;" points="301.652,357.921 317.957,357.921 284.304,299.455 297.305,293.714 256,221.957 
	236.936,338.857 256,422.128 338.61,422.128 "/>
<polygon style="fill:#63ABA1;" points="256,422.128 173.39,422.128 210.348,357.921 194.043,357.921 231.001,293.714 
	214.695,293.714 256,221.957 "/>
<polygon style="fill:#53583C;" points="466.871,357.921 483.178,357.921 449.524,299.455 462.524,293.714 421.22,221.957 
	402.156,338.857 421.22,422.128 503.83,422.128 "/>
<polygon style="fill:#63ABA1;" points="421.22,422.128 338.61,422.128 375.568,357.921 359.263,357.921 396.22,293.714 
	379.915,293.714 421.22,221.957 "/>
<path d="M503.83,452.085H429.39v-21.787h74.439c2.917,0,5.612-1.556,7.073-4.081c1.46-2.524,1.463-5.637,0.008-8.165l-29.908-51.959
	h2.175c2.917,0,5.612-1.556,7.073-4.081c1.46-2.524,1.463-5.637,0.008-8.165l-29.908-51.959h2.174c2.917,0,5.612-1.556,7.073-4.081
	c1.46-2.524,1.463-5.637,0.008-8.165l-41.304-71.76c-1.458-2.533-4.158-4.095-7.081-4.095c-2.923,0-5.622,1.562-7.081,4.095
	l-41.305,71.76c-1.455,2.527-1.452,5.641,0.008,8.165c1.461,2.525,4.156,4.081,7.073,4.081h2.174l-29.907,51.959
	c-1.455,2.527-1.452,5.641,0.008,8.165c1.461,2.525,4.156,4.081,7.073,4.081h2.174L338.61,405.75l-22.826-39.657h2.174
	c2.917,0,5.612-1.556,7.073-4.081c1.46-2.524,1.463-5.637,0.008-8.165l-29.908-51.959h2.175c2.917,0,5.612-1.556,7.073-4.081
	c1.46-2.524,1.463-5.637,0.008-8.165l-41.305-71.761c-1.458-2.533-4.158-4.095-7.081-4.095s-5.623,1.562-7.081,4.095l-41.305,71.76
	c-1.455,2.527-1.452,5.641,0.008,8.165c1.46,2.525,4.156,4.081,7.073,4.081h2.174l-29.908,51.959
	c-1.455,2.527-1.452,5.641,0.008,8.165c1.46,2.525,4.156,4.081,7.073,4.081h2.175l-27.551,47.865H22.3l29.908-51.959
	c1.455-2.527,1.452-5.641-0.008-8.165c-1.46-2.525-4.156-4.081-7.073-4.081h-2.174l29.908-51.959
	c1.455-2.527,1.452-5.641-0.008-8.165c-1.46-2.525-4.156-4.081-7.073-4.081h-2.175l27.175-47.212l27.175,47.212h-2.175
	c-2.917,0-5.612,1.556-7.073,4.081c-1.46,2.524-1.463,5.637-0.008,8.165l29.908,51.959h-2.175c-2.917,0-5.612,1.556-7.073,4.081
	c-1.46,2.524-1.463,5.637-0.008,8.165l18.103,31.45c2.25,3.91,7.246,5.256,11.157,3.006c3.911-2.251,5.256-7.245,3.004-11.156
	l-11.054-19.204h2.175c2.917,0,5.612-1.556,7.073-4.081c1.46-2.524,1.463-5.637,0.008-8.165l-29.908-51.959h2.175
	c2.917,0,5.612-1.556,7.073-4.081c1.46-2.524,1.463-5.637,0.008-8.165l-41.305-71.76c-1.458-2.533-4.158-4.095-7.081-4.095
	c-2.923,0-5.623,1.562-7.081,4.095l-41.305,71.76c-1.455,2.527-1.452,5.641,0.008,8.165c1.46,2.525,4.156,4.081,7.073,4.081h2.175
	l-29.909,51.958c-1.455,2.527-1.452,5.641,0.008,8.165c1.46,2.525,4.156,4.081,7.073,4.081h2.174l-29.907,51.96
	c-1.455,2.527-1.452,5.641,0.008,8.165c1.461,2.525,4.156,4.081,7.073,4.081H82.61v21.787H8.17c-4.512,0-8.17,3.657-8.17,8.17
	s3.658,8.17,8.17,8.17h495.66c4.513,0,8.17-3.657,8.17-8.17S508.343,452.085,503.83,452.085z M413.05,452.085H264.17v-21.787h74.283
	c0.049,0.001,0.099,0.001,0.149,0.001c0.061,0,0.105,0,0.149-0.001h74.299V452.085z M382.648,361.998
	c1.455-2.527,1.452-5.641-0.008-8.165c-1.461-2.525-4.156-4.081-7.073-4.081h-2.174l29.907-51.959
	c1.455-2.527,1.452-5.641-0.008-8.165c-1.461-2.525-4.156-4.081-7.073-4.081h-2.174l27.175-47.212l27.174,47.212h-2.174
	c-2.917,0-5.612,1.556-7.073,4.081c-1.46,2.524-1.463,5.637-0.008,8.165l29.908,51.959h-2.175c-2.917,0-5.612,1.556-7.073,4.081
	c-1.46,2.524-1.463,5.637-0.008,8.165l29.908,51.959H352.74L382.648,361.998z M217.428,361.998c1.455-2.527,1.452-5.641-0.008-8.165
	c-1.46-2.525-4.156-4.081-7.073-4.081h-2.175l29.908-51.959c1.455-2.527,1.452-5.641-0.008-8.165
	c-1.46-2.525-4.156-4.081-7.073-4.081h-2.174L256,238.335l27.175,47.212H281c-2.917,0-5.612,1.556-7.073,4.081
	c-1.46,2.524-1.463,5.637-0.008,8.165l29.908,51.959h-2.174c-2.917,0-5.612,1.556-7.073,4.081c-1.46,2.524-1.463,5.637-0.008,8.165
	l29.908,51.96H187.519L217.428,361.998z M98.95,430.298h148.88v21.787H98.95V430.298z"/>
<path d="M256,147.064c10.27,0,19.909-2.735,28.249-7.495c0.214-0.11,0.422-0.231,0.625-0.359
	c16.924-9.944,28.317-28.329,28.317-49.336c0-20.954-11.335-39.302-28.188-49.262c-0.304-0.199-0.615-0.385-0.94-0.541
	c-8.298-4.695-17.869-7.389-28.063-7.389c-31.536,0-57.191,25.657-57.191,57.191S224.464,147.064,256,147.064z M296.851,89.872
	c0,13.333-6.422,25.193-16.334,32.654c-10.181-7.666-16.347-19.773-16.347-32.654s6.166-24.988,16.347-32.654
	C290.429,64.68,296.851,76.54,296.851,89.872z M256,49.021c2.812,0,5.557,0.285,8.209,0.829
	c-10.334,10.567-16.38,24.916-16.38,40.022s6.046,29.455,16.38,40.022c-2.653,0.544-5.398,0.829-8.209,0.829
	c-22.526,0-40.851-18.325-40.851-40.851S233.474,49.021,256,49.021z"/>
</svg>